<mxfile host="app.diagrams.net" agent="Mozilla/5.0 (Windows NT 10.0; Win64; x64) AppleWebKit/537.36 (KHTML, like Gecko) Chrome/117.0.0.0 Safari/537.36" version="28.0.9">
  <diagram id="VPO69v2GGb55BHCJl5nW" name="PÃ¡gina-1">
    <mxGraphModel dx="2312" dy="950" grid="1" gridSize="10" guides="1" tooltips="1" connect="1" arrows="1" fold="1" page="1" pageScale="1" pageWidth="827" pageHeight="1169" math="1" shadow="0">
      <root>
        <mxCell id="0" />
        <mxCell id="1" parent="0" />
        <mxCell id="pi-SV_cZ-HtD721v4x9k-40" value="" style="rounded=1;whiteSpace=wrap;html=1;strokeWidth=3;direction=south;gradientColor=#ffffff;fillColor=#BABABA;gradientDirection=north;arcSize=50;strokeColor=#999999;rotation=90;" parent="1" vertex="1">
          <mxGeometry x="652.25" y="408.25" width="20" height="261.5" as="geometry" />
        </mxCell>
        <mxCell id="pi-SV_cZ-HtD721v4x9k-3" style="edgeStyle=orthogonalEdgeStyle;rounded=0;orthogonalLoop=1;jettySize=auto;html=1;endArrow=oval;endFill=1;strokeWidth=3;entryX=0;entryY=0.645;entryDx=0;entryDy=0;entryPerimeter=0;" parent="1" target="EwHTVLRrVT_rf0cmMfTu-1" edge="1">
          <mxGeometry relative="1" as="geometry">
            <mxPoint x="280" y="540" as="sourcePoint" />
          </mxGeometry>
        </mxCell>
        <mxCell id="EwHTVLRrVT_rf0cmMfTu-1" value="" style="pointerEvents=1;verticalLabelPosition=bottom;shadow=0;dashed=0;align=center;html=1;verticalAlign=top;shape=mxgraph.electrical.inductors.inductor_5;strokeWidth=3;rotation=90;" parent="1" vertex="1">
          <mxGeometry x="213" y="620" width="140" height="30" as="geometry" />
        </mxCell>
        <mxCell id="EwHTVLRrVT_rf0cmMfTu-6" style="edgeStyle=orthogonalEdgeStyle;rounded=0;orthogonalLoop=1;jettySize=auto;html=1;exitX=0.5;exitY=1;exitDx=0;exitDy=0;exitPerimeter=0;endArrow=none;endFill=0;strokeWidth=3;endSize=10;" parent="1" source="EwHTVLRrVT_rf0cmMfTu-2" edge="1">
          <mxGeometry relative="1" as="geometry">
            <mxPoint x="280" y="540" as="targetPoint" />
            <Array as="points">
              <mxPoint x="310" y="540" />
            </Array>
          </mxGeometry>
        </mxCell>
        <mxCell id="pi-SV_cZ-HtD721v4x9k-9" style="edgeStyle=orthogonalEdgeStyle;rounded=0;orthogonalLoop=1;jettySize=auto;html=1;exitX=1;exitY=0.25;exitDx=0;exitDy=0;exitPerimeter=0;entryX=0;entryY=0.5;entryDx=0;entryDy=0;entryPerimeter=0;endArrow=oval;endFill=1;strokeColor=#000000;strokeWidth=3;" parent="1" source="EwHTVLRrVT_rf0cmMfTu-2" target="JG4VFSaP6pWy1ThilDXd-2" edge="1">
          <mxGeometry relative="1" as="geometry" />
        </mxCell>
        <mxCell id="EwHTVLRrVT_rf0cmMfTu-2" value="" style="pointerEvents=1;verticalLabelPosition=bottom;shadow=0;dashed=0;align=center;html=1;verticalAlign=top;shape=mxgraph.electrical.resistors.potentiometer_1;strokeWidth=3;rotation=-90;" parent="1" vertex="1">
          <mxGeometry x="240" y="419" width="100" height="40" as="geometry" />
        </mxCell>
        <mxCell id="EwHTVLRrVT_rf0cmMfTu-52" value="&lt;font style=&quot;font-size: 24px&quot; face=&quot;Verdana&quot;&gt;t&lt;/font&gt;" style="text;html=1;strokeColor=none;fillColor=none;align=center;verticalAlign=middle;whiteSpace=wrap;rounded=0;dashed=1;" parent="1" vertex="1">
          <mxGeometry x="280" y="375" width="40" height="20" as="geometry" />
        </mxCell>
        <mxCell id="EwHTVLRrVT_rf0cmMfTu-54" value="&lt;font style=&quot;font-size: 24px&quot; face=&quot;Verdana&quot;&gt;s&lt;/font&gt;" style="text;html=1;strokeColor=none;fillColor=none;align=center;verticalAlign=middle;whiteSpace=wrap;rounded=0;dashed=1;" parent="1" vertex="1">
          <mxGeometry x="310" y="429" width="40" height="20" as="geometry" />
        </mxCell>
        <mxCell id="EwHTVLRrVT_rf0cmMfTu-55" value="&lt;font style=&quot;font-size: 24px&quot; face=&quot;Verdana&quot;&gt;C&lt;/font&gt;" style="text;html=1;strokeColor=none;fillColor=none;align=center;verticalAlign=middle;whiteSpace=wrap;rounded=0;dashed=1;" parent="1" vertex="1">
          <mxGeometry x="230" y="554" width="40" height="20" as="geometry" />
        </mxCell>
        <mxCell id="EwHTVLRrVT_rf0cmMfTu-57" value="&lt;font style=&quot;font-size: 24px&quot; face=&quot;Verdana&quot;&gt;D&lt;/font&gt;" style="text;html=1;strokeColor=none;fillColor=none;align=center;verticalAlign=middle;whiteSpace=wrap;rounded=0;dashed=1;" parent="1" vertex="1">
          <mxGeometry x="230" y="697" width="40" height="20" as="geometry" />
        </mxCell>
        <mxCell id="pi-SV_cZ-HtD721v4x9k-29" style="edgeStyle=orthogonalEdgeStyle;rounded=0;orthogonalLoop=1;jettySize=auto;html=1;exitX=0;exitY=0.5;exitDx=0;exitDy=0;fontFamily=Times New Roman;fontSize=27;startArrow=none;startFill=0;endArrow=none;endFill=0;strokeColor=#000000;strokeWidth=3;" parent="1" source="EwHTVLRrVT_rf0cmMfTu-27" edge="1">
          <mxGeometry relative="1" as="geometry">
            <mxPoint x="280" y="350" as="targetPoint" />
            <Array as="points">
              <mxPoint x="489" y="350" />
            </Array>
          </mxGeometry>
        </mxCell>
        <mxCell id="pi-SV_cZ-HtD721v4x9k-34" style="edgeStyle=orthogonalEdgeStyle;rounded=0;orthogonalLoop=1;jettySize=auto;html=1;exitX=1;exitY=0.5;exitDx=0;exitDy=0;fontFamily=Times New Roman;fontSize=27;startArrow=none;startFill=0;endArrow=oval;endFill=1;strokeColor=#000000;strokeWidth=3;entryX=1;entryY=0.645;entryDx=0;entryDy=0;entryPerimeter=0;" parent="1" source="EwHTVLRrVT_rf0cmMfTu-27" target="pi-SV_cZ-HtD721v4x9k-30" edge="1">
          <mxGeometry relative="1" as="geometry">
            <mxPoint x="490" y="640" as="targetPoint" />
          </mxGeometry>
        </mxCell>
        <mxCell id="EwHTVLRrVT_rf0cmMfTu-27" value="" style="rounded=0;whiteSpace=wrap;html=1;strokeColor=#000000;strokeWidth=3;fillColor=#000000;rotation=90;" parent="1" vertex="1">
          <mxGeometry x="424" y="519" width="130" height="40" as="geometry" />
        </mxCell>
        <mxCell id="EwHTVLRrVT_rf0cmMfTu-28" value="" style="ellipse;whiteSpace=wrap;html=1;aspect=fixed;strokeColor=#000000;strokeWidth=3;fillColor=#FFFFFF;" parent="1" vertex="1">
          <mxGeometry x="432.5" y="483" width="114" height="114" as="geometry" />
        </mxCell>
        <mxCell id="EwHTVLRrVT_rf0cmMfTu-29" value="&lt;font style=&quot;font-size: 45px&quot;&gt;M&lt;/font&gt;" style="text;html=1;strokeColor=none;fillColor=none;align=center;verticalAlign=middle;whiteSpace=wrap;rounded=0;" parent="1" vertex="1">
          <mxGeometry x="469.5" y="519" width="40" height="20" as="geometry" />
        </mxCell>
        <mxCell id="EwHTVLRrVT_rf0cmMfTu-32" value="" style="group" parent="1" vertex="1" connectable="0">
          <mxGeometry x="463.5" y="559" width="52" height="10" as="geometry" />
        </mxCell>
        <mxCell id="EwHTVLRrVT_rf0cmMfTu-30" value="" style="endArrow=none;dashed=1;html=1;strokeWidth=3;" parent="EwHTVLRrVT_rf0cmMfTu-32" edge="1">
          <mxGeometry width="50" height="50" relative="1" as="geometry">
            <mxPoint x="2" y="10" as="sourcePoint" />
            <mxPoint x="52" y="10" as="targetPoint" />
          </mxGeometry>
        </mxCell>
        <mxCell id="EwHTVLRrVT_rf0cmMfTu-31" value="" style="endArrow=none;html=1;strokeWidth=3;" parent="EwHTVLRrVT_rf0cmMfTu-32" edge="1">
          <mxGeometry width="50" height="50" relative="1" as="geometry">
            <mxPoint as="sourcePoint" />
            <mxPoint x="50" as="targetPoint" />
          </mxGeometry>
        </mxCell>
        <mxCell id="pi-SV_cZ-HtD721v4x9k-24" style="edgeStyle=orthogonalEdgeStyle;rounded=0;orthogonalLoop=1;jettySize=auto;html=1;exitX=1;exitY=0.5;exitDx=0;exitDy=0;exitPerimeter=0;fontFamily=Times New Roman;fontSize=27;startArrow=none;startFill=0;endArrow=oval;endFill=0;strokeColor=#000000;strokeWidth=3;" parent="1" source="RMLzoHUwO2nVBS5npLTa-6" edge="1">
          <mxGeometry relative="1" as="geometry">
            <mxPoint x="-30" y="431.08333333333337" as="targetPoint" />
          </mxGeometry>
        </mxCell>
        <mxCell id="RMLzoHUwO2nVBS5npLTa-6" value="" style="pointerEvents=1;verticalLabelPosition=bottom;shadow=0;dashed=0;align=center;html=1;verticalAlign=top;shape=mxgraph.electrical.miscellaneous.fuse_2;strokeWidth=3;direction=west;" parent="1" vertex="1">
          <mxGeometry y="424.5" width="46" height="13" as="geometry" />
        </mxCell>
        <mxCell id="JG4VFSaP6pWy1ThilDXd-2" value="" style="pointerEvents=1;verticalLabelPosition=bottom;shadow=0;dashed=0;align=center;html=1;verticalAlign=top;shape=mxgraph.electrical.resistors.resistor_2;direction=south;strokeWidth=3;flipV=1;rotation=-90;" parent="1" vertex="1">
          <mxGeometry x="43" y="295" width="23" height="111" as="geometry" />
        </mxCell>
        <mxCell id="pi-SV_cZ-HtD721v4x9k-58" style="edgeStyle=orthogonalEdgeStyle;rounded=0;orthogonalLoop=1;jettySize=auto;html=1;exitX=0;exitY=0.5;exitDx=0;exitDy=0;fontFamily=Times New Roman;fontSize=27;startArrow=none;startFill=0;endArrow=none;endFill=0;strokeColor=#000000;strokeWidth=3;" parent="1" source="JG4VFSaP6pWy1ThilDXd-35" edge="1">
          <mxGeometry relative="1" as="geometry">
            <mxPoint x="841.5294117647059" y="350" as="targetPoint" />
          </mxGeometry>
        </mxCell>
        <mxCell id="pi-SV_cZ-HtD721v4x9k-60" style="edgeStyle=orthogonalEdgeStyle;rounded=0;orthogonalLoop=1;jettySize=auto;html=1;exitX=1;exitY=0.5;exitDx=0;exitDy=0;fontFamily=Times New Roman;fontSize=27;startArrow=none;startFill=0;endArrow=none;endFill=0;strokeColor=#000000;strokeWidth=3;" parent="1" source="JG4VFSaP6pWy1ThilDXd-35" edge="1">
          <mxGeometry relative="1" as="geometry">
            <mxPoint x="1160.4444986979167" y="760" as="targetPoint" />
            <Array as="points">
              <mxPoint x="841" y="760" />
            </Array>
          </mxGeometry>
        </mxCell>
        <mxCell id="JG4VFSaP6pWy1ThilDXd-35" value="" style="rounded=0;whiteSpace=wrap;html=1;strokeColor=#000000;strokeWidth=3;fillColor=#000000;rotation=90;" parent="1" vertex="1">
          <mxGeometry x="776" y="519" width="130" height="40" as="geometry" />
        </mxCell>
        <mxCell id="JG4VFSaP6pWy1ThilDXd-36" value="" style="ellipse;whiteSpace=wrap;html=1;aspect=fixed;strokeColor=#000000;strokeWidth=3;fillColor=#FFFFFF;" parent="1" vertex="1">
          <mxGeometry x="784.5" y="483" width="114" height="114" as="geometry" />
        </mxCell>
        <mxCell id="JG4VFSaP6pWy1ThilDXd-37" value="&lt;font style=&quot;font-size: 45px&quot;&gt;G&lt;/font&gt;" style="text;html=1;strokeColor=none;fillColor=none;align=center;verticalAlign=middle;whiteSpace=wrap;rounded=0;" parent="1" vertex="1">
          <mxGeometry x="821.5" y="518" width="40" height="20" as="geometry" />
        </mxCell>
        <mxCell id="JG4VFSaP6pWy1ThilDXd-38" value="" style="group" parent="1" vertex="1" connectable="0">
          <mxGeometry x="815.5" y="558" width="52" height="9" as="geometry" />
        </mxCell>
        <mxCell id="JG4VFSaP6pWy1ThilDXd-39" value="" style="endArrow=none;dashed=1;html=1;strokeWidth=3;" parent="JG4VFSaP6pWy1ThilDXd-38" edge="1">
          <mxGeometry width="50" height="50" relative="1" as="geometry">
            <mxPoint x="2" y="9" as="sourcePoint" />
            <mxPoint x="52" y="9" as="targetPoint" />
          </mxGeometry>
        </mxCell>
        <mxCell id="JG4VFSaP6pWy1ThilDXd-40" value="" style="endArrow=none;html=1;strokeWidth=3;" parent="JG4VFSaP6pWy1ThilDXd-38" edge="1">
          <mxGeometry width="50" height="50" relative="1" as="geometry">
            <mxPoint as="sourcePoint" />
            <mxPoint x="50" as="targetPoint" />
          </mxGeometry>
        </mxCell>
        <mxCell id="JG4VFSaP6pWy1ThilDXd-61" value="" style="endArrow=blockThin;html=1;strokeWidth=2;endFill=1;strokeColor=#000000;endSize=10;" parent="1" edge="1">
          <mxGeometry width="50" height="50" relative="1" as="geometry">
            <mxPoint x="370" y="330.2299999999999" as="sourcePoint" />
            <mxPoint x="470" y="330" as="targetPoint" />
          </mxGeometry>
        </mxCell>
        <mxCell id="xqJZyPHzB6WkQOfQiTBp-20" value="" style="rounded=0;whiteSpace=wrap;html=1;strokeWidth=3;strokeColor=#FFFFFF;" parent="1" vertex="1">
          <mxGeometry x="270" y="474" width="20" height="60" as="geometry" />
        </mxCell>
        <mxCell id="pi-SV_cZ-HtD721v4x9k-7" value="" style="endArrow=none;html=1;strokeWidth=3;rounded=0;endFill=0;endSize=10;startArrow=block;startFill=0;startSize=15;entryX=0;entryY=0.5;entryDx=0;entryDy=0;entryPerimeter=0;" parent="1" target="RMLzoHUwO2nVBS5npLTa-6" edge="1">
          <mxGeometry width="50" height="50" relative="1" as="geometry">
            <mxPoint x="93" y="350" as="sourcePoint" />
            <mxPoint y="430" as="targetPoint" />
            <Array as="points">
              <mxPoint x="93" y="431" />
            </Array>
          </mxGeometry>
        </mxCell>
        <mxCell id="pi-SV_cZ-HtD721v4x9k-10" value="" style="endArrow=none;html=1;strokeWidth=3;rounded=0;endFill=0;endSize=10;startArrow=none;startFill=0;startSize=15;exitX=1;exitY=0.645;exitDx=0;exitDy=0;exitPerimeter=0;entryX=0;entryY=0.5;entryDx=0;entryDy=0;entryPerimeter=0;" parent="1" source="EwHTVLRrVT_rf0cmMfTu-1" target="pi-SV_cZ-HtD721v4x9k-13" edge="1">
          <mxGeometry width="50" height="50" relative="1" as="geometry">
            <mxPoint x="92.90599999999995" y="670.0020000000001" as="sourcePoint" />
            <mxPoint x="100" y="755" as="targetPoint" />
            <Array as="points">
              <mxPoint x="279" y="755" />
            </Array>
          </mxGeometry>
        </mxCell>
        <mxCell id="pi-SV_cZ-HtD721v4x9k-11" style="edgeStyle=orthogonalEdgeStyle;rounded=0;orthogonalLoop=1;jettySize=auto;html=1;endArrow=oval;endFill=1;strokeWidth=3;entryX=0;entryY=0.645;entryDx=0;entryDy=0;entryPerimeter=0;" parent="1" edge="1">
          <mxGeometry relative="1" as="geometry">
            <mxPoint x="278.6500000000001" y="706" as="targetPoint" />
            <mxPoint x="280" y="681" as="sourcePoint" />
          </mxGeometry>
        </mxCell>
        <mxCell id="pi-SV_cZ-HtD721v4x9k-25" style="edgeStyle=orthogonalEdgeStyle;rounded=0;orthogonalLoop=1;jettySize=auto;html=1;exitX=1;exitY=0.5;exitDx=0;exitDy=0;exitPerimeter=0;fontFamily=Times New Roman;fontSize=27;startArrow=none;startFill=0;endArrow=oval;endFill=0;strokeColor=#000000;strokeWidth=3;" parent="1" source="pi-SV_cZ-HtD721v4x9k-13" edge="1">
          <mxGeometry relative="1" as="geometry">
            <mxPoint x="-30" y="755.5" as="targetPoint" />
          </mxGeometry>
        </mxCell>
        <mxCell id="pi-SV_cZ-HtD721v4x9k-13" value="" style="pointerEvents=1;verticalLabelPosition=bottom;shadow=0;dashed=0;align=center;html=1;verticalAlign=top;shape=mxgraph.electrical.miscellaneous.fuse_2;strokeWidth=3;direction=west;" parent="1" vertex="1">
          <mxGeometry y="749" width="46" height="13" as="geometry" />
        </mxCell>
        <mxCell id="pi-SV_cZ-HtD721v4x9k-14" style="edgeStyle=orthogonalEdgeStyle;rounded=0;orthogonalLoop=1;jettySize=auto;html=1;endArrow=oval;endFill=1;strokeWidth=3;" parent="1" edge="1">
          <mxGeometry relative="1" as="geometry">
            <mxPoint x="79" y="431" as="targetPoint" />
            <mxPoint x="89" y="431" as="sourcePoint" />
          </mxGeometry>
        </mxCell>
        <mxCell id="pi-SV_cZ-HtD721v4x9k-16" value="&lt;font style=&quot;font-size: 24px&quot; face=&quot;Verdana&quot;&gt;L&lt;/font&gt;" style="text;html=1;strokeColor=none;fillColor=none;align=center;verticalAlign=middle;whiteSpace=wrap;rounded=0;dashed=1;" parent="1" vertex="1">
          <mxGeometry x="60" y="441" width="40" height="20" as="geometry" />
        </mxCell>
        <mxCell id="pi-SV_cZ-HtD721v4x9k-18" value="&lt;font style=&quot;font-size: 24px&quot; face=&quot;Verdana&quot;&gt;R&lt;/font&gt;" style="text;html=1;strokeColor=none;fillColor=none;align=center;verticalAlign=middle;whiteSpace=wrap;rounded=0;dashed=1;" parent="1" vertex="1">
          <mxGeometry x="92" y="321" width="40" height="20" as="geometry" />
        </mxCell>
        <mxCell id="pi-SV_cZ-HtD721v4x9k-19" style="edgeStyle=orthogonalEdgeStyle;rounded=0;orthogonalLoop=1;jettySize=auto;html=1;endArrow=oval;endFill=1;strokeWidth=3;entryX=1;entryY=0.25;entryDx=0;entryDy=0;entryPerimeter=0;" parent="1" target="EwHTVLRrVT_rf0cmMfTu-2" edge="1">
          <mxGeometry relative="1" as="geometry">
            <mxPoint x="199" y="390.62" as="targetPoint" />
            <mxPoint x="280" y="370" as="sourcePoint" />
          </mxGeometry>
        </mxCell>
        <mxCell id="pi-SV_cZ-HtD721v4x9k-20" value="&lt;font style=&quot;font-size: 24px&quot;&gt;$$580\:\Omega$$&lt;/font&gt;" style="text;html=1;strokeColor=none;fillColor=none;align=center;verticalAlign=middle;whiteSpace=wrap;rounded=0;dashed=1;fontFamily=Times New Roman;" parent="1" vertex="1">
          <mxGeometry x="213" y="429" width="40" height="20" as="geometry" />
        </mxCell>
        <mxCell id="pi-SV_cZ-HtD721v4x9k-21" value="&lt;font style=&quot;font-size: 24px&quot;&gt;$$250\:\Omega$$&lt;/font&gt;" style="text;html=1;strokeColor=none;fillColor=none;align=center;verticalAlign=middle;whiteSpace=wrap;rounded=0;dashed=1;fontFamily=Times New Roman;" parent="1" vertex="1">
          <mxGeometry x="190" y="607.5" width="80" height="55" as="geometry" />
        </mxCell>
        <mxCell id="pi-SV_cZ-HtD721v4x9k-22" value="&lt;font style=&quot;font-size: 24px&quot;&gt;$$R_a=0.114\:\Omega$$&lt;/font&gt;" style="text;html=1;strokeColor=none;fillColor=none;align=center;verticalAlign=middle;whiteSpace=wrap;rounded=0;dashed=1;fontFamily=Times New Roman;rotation=-90;" parent="1" vertex="1">
          <mxGeometry x="385" y="532" width="40" height="20" as="geometry" />
        </mxCell>
        <mxCell id="pi-SV_cZ-HtD721v4x9k-23" value="" style="endArrow=none;dashed=1;html=1;strokeWidth=3;entryX=0.498;entryY=0.959;entryDx=0;entryDy=0;entryPerimeter=0;strokeColor=#666666;" parent="1" target="pi-SV_cZ-HtD721v4x9k-13" edge="1">
          <mxGeometry width="50" height="50" relative="1" as="geometry">
            <mxPoint x="23" y="440" as="sourcePoint" />
            <mxPoint x="530.0969999999998" y="243.67799999999966" as="targetPoint" />
          </mxGeometry>
        </mxCell>
        <mxCell id="pi-SV_cZ-HtD721v4x9k-26" value="&lt;font style=&quot;font-size: 24px&quot; face=&quot;Verdana&quot;&gt;+&lt;/font&gt;" style="text;html=1;strokeColor=none;fillColor=none;align=center;verticalAlign=middle;whiteSpace=wrap;rounded=0;dashed=1;" parent="1" vertex="1">
          <mxGeometry x="-50" y="439" width="40" height="20" as="geometry" />
        </mxCell>
        <mxCell id="pi-SV_cZ-HtD721v4x9k-27" value="&lt;font style=&quot;font-size: 24px&quot; face=&quot;Verdana&quot;&gt;-&lt;/font&gt;" style="text;html=1;strokeColor=none;fillColor=none;align=center;verticalAlign=middle;whiteSpace=wrap;rounded=0;dashed=1;" parent="1" vertex="1">
          <mxGeometry x="-50" y="729" width="40" height="20" as="geometry" />
        </mxCell>
        <mxCell id="pi-SV_cZ-HtD721v4x9k-28" value="&lt;font style=&quot;font-size: 24px&quot;&gt;$$415\:\rm V$$&lt;/font&gt;" style="text;html=1;strokeColor=none;fillColor=none;align=center;verticalAlign=middle;whiteSpace=wrap;rounded=0;dashed=1;fontFamily=Times New Roman;" parent="1" vertex="1">
          <mxGeometry x="-80" y="557" width="80" height="55" as="geometry" />
        </mxCell>
        <mxCell id="pi-SV_cZ-HtD721v4x9k-36" style="edgeStyle=orthogonalEdgeStyle;rounded=0;orthogonalLoop=1;jettySize=auto;html=1;exitX=0;exitY=0.645;exitDx=0;exitDy=0;exitPerimeter=0;fontFamily=Times New Roman;fontSize=27;startArrow=none;startFill=0;endArrow=none;endFill=0;strokeColor=#000000;strokeWidth=3;" parent="1" source="pi-SV_cZ-HtD721v4x9k-30" edge="1">
          <mxGeometry relative="1" as="geometry">
            <mxPoint x="279.9999999999998" y="754.5" as="targetPoint" />
          </mxGeometry>
        </mxCell>
        <mxCell id="pi-SV_cZ-HtD721v4x9k-30" value="" style="pointerEvents=1;verticalLabelPosition=bottom;shadow=0;dashed=0;align=center;html=1;verticalAlign=top;shape=mxgraph.electrical.inductors.inductor_5;strokeWidth=3;rotation=90;direction=north;" parent="1" vertex="1">
          <mxGeometry x="384" y="680" width="30" height="140" as="geometry" />
        </mxCell>
        <mxCell id="pi-SV_cZ-HtD721v4x9k-32" value="&lt;font style=&quot;font-size: 24px&quot;&gt;$$0.072\:\Omega$$&lt;/font&gt;" style="text;html=1;strokeColor=none;fillColor=none;align=center;verticalAlign=middle;whiteSpace=wrap;rounded=0;dashed=1;fontFamily=Times New Roman;" parent="1" vertex="1">
          <mxGeometry x="359" y="680" width="80" height="55" as="geometry" />
        </mxCell>
        <mxCell id="pi-SV_cZ-HtD721v4x9k-37" style="edgeStyle=orthogonalEdgeStyle;rounded=0;orthogonalLoop=1;jettySize=auto;html=1;endArrow=oval;endFill=1;strokeWidth=3;entryX=0;entryY=0.645;entryDx=0;entryDy=0;entryPerimeter=0;" parent="1" target="pi-SV_cZ-HtD721v4x9k-30" edge="1">
          <mxGeometry relative="1" as="geometry">
            <mxPoint x="288.64999999999986" y="716" as="targetPoint" />
            <mxPoint x="280" y="754" as="sourcePoint" />
          </mxGeometry>
        </mxCell>
        <mxCell id="pi-SV_cZ-HtD721v4x9k-38" value="&lt;font style=&quot;font-size: 24px&quot; face=&quot;Verdana&quot;&gt;F&lt;/font&gt;" style="text;html=1;strokeColor=none;fillColor=none;align=center;verticalAlign=middle;whiteSpace=wrap;rounded=0;dashed=1;" parent="1" vertex="1">
          <mxGeometry x="310" y="722" width="40" height="20" as="geometry" />
        </mxCell>
        <mxCell id="pi-SV_cZ-HtD721v4x9k-39" value="&lt;font style=&quot;font-size: 24px&quot; face=&quot;Verdana&quot;&gt;E&lt;/font&gt;" style="text;html=1;strokeColor=none;fillColor=none;align=center;verticalAlign=middle;whiteSpace=wrap;rounded=0;dashed=1;" parent="1" vertex="1">
          <mxGeometry x="450" y="722" width="40" height="20" as="geometry" />
        </mxCell>
        <mxCell id="pi-SV_cZ-HtD721v4x9k-41" value="" style="html=1;shadow=0;dashed=0;align=center;verticalAlign=middle;shape=mxgraph.arrows2.uTurnArrow;dy=4.94;arrowHead=34.89;dx2=33.47;strokeWidth=3;fillColor=#BABABA;rotation=60;direction=south;" parent="1" vertex="1">
          <mxGeometry x="624" y="521" width="101" height="20" as="geometry" />
        </mxCell>
        <mxCell id="pi-SV_cZ-HtD721v4x9k-42" style="edgeStyle=orthogonalEdgeStyle;rounded=0;orthogonalLoop=1;jettySize=auto;html=1;endArrow=oval;endFill=1;strokeWidth=3;entryX=0;entryY=0.645;entryDx=0;entryDy=0;entryPerimeter=0;" parent="1" target="pi-SV_cZ-HtD721v4x9k-43" edge="1">
          <mxGeometry relative="1" as="geometry">
            <mxPoint x="1127" y="541" as="sourcePoint" />
          </mxGeometry>
        </mxCell>
        <mxCell id="pi-SV_cZ-HtD721v4x9k-63" style="edgeStyle=orthogonalEdgeStyle;rounded=0;orthogonalLoop=1;jettySize=auto;html=1;exitX=1;exitY=0.645;exitDx=0;exitDy=0;exitPerimeter=0;fontFamily=Times New Roman;fontSize=27;startArrow=none;startFill=0;endArrow=none;endFill=0;strokeColor=#000000;strokeWidth=3;" parent="1" source="pi-SV_cZ-HtD721v4x9k-43" edge="1">
          <mxGeometry relative="1" as="geometry">
            <mxPoint x="1125.6666666666665" y="760" as="targetPoint" />
          </mxGeometry>
        </mxCell>
        <mxCell id="pi-SV_cZ-HtD721v4x9k-43" value="" style="pointerEvents=1;verticalLabelPosition=bottom;shadow=0;dashed=0;align=center;html=1;verticalAlign=top;shape=mxgraph.electrical.inductors.inductor_5;strokeWidth=3;rotation=90;" parent="1" vertex="1">
          <mxGeometry x="1060" y="621" width="140" height="30" as="geometry" />
        </mxCell>
        <mxCell id="pi-SV_cZ-HtD721v4x9k-44" style="edgeStyle=orthogonalEdgeStyle;rounded=0;orthogonalLoop=1;jettySize=auto;html=1;exitX=0.5;exitY=1;exitDx=0;exitDy=0;exitPerimeter=0;endArrow=none;endFill=0;strokeWidth=3;endSize=10;" parent="1" source="pi-SV_cZ-HtD721v4x9k-45" edge="1">
          <mxGeometry relative="1" as="geometry">
            <mxPoint x="1127" y="541" as="targetPoint" />
            <Array as="points">
              <mxPoint x="1157" y="541" />
            </Array>
          </mxGeometry>
        </mxCell>
        <mxCell id="pi-SV_cZ-HtD721v4x9k-45" value="" style="pointerEvents=1;verticalLabelPosition=bottom;shadow=0;dashed=0;align=center;html=1;verticalAlign=top;shape=mxgraph.electrical.resistors.potentiometer_1;strokeWidth=3;rotation=-90;" parent="1" vertex="1">
          <mxGeometry x="1087" y="420" width="100" height="40" as="geometry" />
        </mxCell>
        <mxCell id="pi-SV_cZ-HtD721v4x9k-46" value="&lt;font style=&quot;font-size: 24px&quot; face=&quot;Verdana&quot;&gt;t&lt;/font&gt;" style="text;html=1;strokeColor=none;fillColor=none;align=center;verticalAlign=middle;whiteSpace=wrap;rounded=0;dashed=1;" parent="1" vertex="1">
          <mxGeometry x="1127" y="376" width="40" height="20" as="geometry" />
        </mxCell>
        <mxCell id="pi-SV_cZ-HtD721v4x9k-47" value="&lt;font style=&quot;font-size: 24px&quot; face=&quot;Verdana&quot;&gt;C&lt;/font&gt;" style="text;html=1;strokeColor=none;fillColor=none;align=center;verticalAlign=middle;whiteSpace=wrap;rounded=0;dashed=1;" parent="1" vertex="1">
          <mxGeometry x="1077" y="555" width="40" height="20" as="geometry" />
        </mxCell>
        <mxCell id="pi-SV_cZ-HtD721v4x9k-48" value="&lt;font style=&quot;font-size: 24px&quot; face=&quot;Verdana&quot;&gt;D&lt;/font&gt;" style="text;html=1;strokeColor=none;fillColor=none;align=center;verticalAlign=middle;whiteSpace=wrap;rounded=0;dashed=1;" parent="1" vertex="1">
          <mxGeometry x="1077" y="698" width="40" height="20" as="geometry" />
        </mxCell>
        <mxCell id="pi-SV_cZ-HtD721v4x9k-49" value="" style="rounded=0;whiteSpace=wrap;html=1;strokeWidth=3;strokeColor=#FFFFFF;" parent="1" vertex="1">
          <mxGeometry x="1117" y="475" width="20" height="60" as="geometry" />
        </mxCell>
        <mxCell id="pi-SV_cZ-HtD721v4x9k-50" style="edgeStyle=orthogonalEdgeStyle;rounded=0;orthogonalLoop=1;jettySize=auto;html=1;endArrow=oval;endFill=1;strokeWidth=3;entryX=0;entryY=0.645;entryDx=0;entryDy=0;entryPerimeter=0;" parent="1" edge="1">
          <mxGeometry relative="1" as="geometry">
            <mxPoint x="1125.6499999999999" y="707.5" as="targetPoint" />
            <mxPoint x="1124.3" y="732.5" as="sourcePoint" />
          </mxGeometry>
        </mxCell>
        <mxCell id="pi-SV_cZ-HtD721v4x9k-51" style="edgeStyle=orthogonalEdgeStyle;rounded=0;orthogonalLoop=1;jettySize=auto;html=1;endArrow=oval;endFill=1;strokeWidth=3;entryX=1;entryY=0.25;entryDx=0;entryDy=0;entryPerimeter=0;" parent="1" target="pi-SV_cZ-HtD721v4x9k-45" edge="1">
          <mxGeometry relative="1" as="geometry">
            <mxPoint x="1044" y="391.62" as="targetPoint" />
            <mxPoint x="840" y="350" as="sourcePoint" />
          </mxGeometry>
        </mxCell>
        <mxCell id="pi-SV_cZ-HtD721v4x9k-52" value="&lt;font style=&quot;font-size: 24px&quot;&gt;$$575\:\Omega$$&lt;/font&gt;" style="text;html=1;strokeColor=none;fillColor=none;align=center;verticalAlign=middle;whiteSpace=wrap;rounded=0;dashed=1;fontFamily=Times New Roman;" parent="1" vertex="1">
          <mxGeometry x="1060" y="430" width="40" height="20" as="geometry" />
        </mxCell>
        <mxCell id="pi-SV_cZ-HtD721v4x9k-53" value="&lt;font style=&quot;font-size: 24px&quot;&gt;$$250\:\Omega$$&lt;/font&gt;" style="text;html=1;strokeColor=none;fillColor=none;align=center;verticalAlign=middle;whiteSpace=wrap;rounded=0;dashed=1;fontFamily=Times New Roman;" parent="1" vertex="1">
          <mxGeometry x="1037" y="608.5" width="80" height="55" as="geometry" />
        </mxCell>
        <mxCell id="EwHTVLRrVT_rf0cmMfTu-73" value="" style="endArrow=baseDash;html=1;strokeWidth=3;endFill=0;rounded=0;" parent="1" edge="1">
          <mxGeometry width="50" height="50" relative="1" as="geometry">
            <mxPoint x="1002" y="760" as="sourcePoint" />
            <mxPoint x="1137" y="483" as="targetPoint" />
            <Array as="points">
              <mxPoint x="1002" y="483" />
            </Array>
          </mxGeometry>
        </mxCell>
        <mxCell id="pi-SV_cZ-HtD721v4x9k-54" value="&lt;font style=&quot;font-size: 24px&quot; face=&quot;Verdana&quot;&gt;s&lt;/font&gt;" style="text;html=1;strokeColor=none;fillColor=none;align=center;verticalAlign=middle;whiteSpace=wrap;rounded=0;dashed=1;" parent="1" vertex="1">
          <mxGeometry x="1167" y="430" width="40" height="20" as="geometry" />
        </mxCell>
        <mxCell id="pi-SV_cZ-HtD721v4x9k-55" style="edgeStyle=orthogonalEdgeStyle;rounded=0;orthogonalLoop=1;jettySize=auto;html=1;endArrow=oval;endFill=1;strokeWidth=3;" parent="1" edge="1">
          <mxGeometry relative="1" as="geometry">
            <mxPoint x="1077" y="483" as="targetPoint" />
            <mxPoint x="1107" y="483" as="sourcePoint" />
          </mxGeometry>
        </mxCell>
        <mxCell id="pi-SV_cZ-HtD721v4x9k-56" value="&lt;font style=&quot;font-size: 24px&quot; face=&quot;Verdana&quot;&gt;q&lt;/font&gt;" style="text;html=1;strokeColor=none;fillColor=none;align=center;verticalAlign=middle;whiteSpace=wrap;rounded=0;dashed=1;" parent="1" vertex="1">
          <mxGeometry x="1057" y="489" width="40" height="20" as="geometry" />
        </mxCell>
        <mxCell id="pi-SV_cZ-HtD721v4x9k-64" value="&lt;font style=&quot;font-size: 24px&quot;&gt;$$R_a=0.114\:\Omega$$&lt;/font&gt;" style="text;html=1;strokeColor=none;fillColor=none;align=center;verticalAlign=middle;whiteSpace=wrap;rounded=0;dashed=1;fontFamily=Times New Roman;rotation=90;direction=west;" parent="1" vertex="1">
          <mxGeometry x="906" y="529" width="40" height="20" as="geometry" />
        </mxCell>
        <mxCell id="pi-SV_cZ-HtD721v4x9k-66" style="edgeStyle=orthogonalEdgeStyle;rounded=0;orthogonalLoop=1;jettySize=auto;html=1;exitX=1;exitY=0.5;exitDx=0;exitDy=0;exitPerimeter=0;fontFamily=Times New Roman;fontSize=27;startArrow=none;startFill=0;endArrow=none;endFill=0;strokeColor=#000000;strokeWidth=3;" parent="1" source="pi-SV_cZ-HtD721v4x9k-65" edge="1">
          <mxGeometry relative="1" as="geometry">
            <mxPoint x="1120" y="350" as="targetPoint" />
          </mxGeometry>
        </mxCell>
        <mxCell id="pi-SV_cZ-HtD721v4x9k-65" value="" style="pointerEvents=1;verticalLabelPosition=bottom;shadow=0;dashed=0;align=center;html=1;verticalAlign=top;shape=mxgraph.electrical.miscellaneous.fuse_2;strokeWidth=3;direction=west;" parent="1" vertex="1">
          <mxGeometry x="1250" y="344" width="46" height="13" as="geometry" />
        </mxCell>
        <mxCell id="pi-SV_cZ-HtD721v4x9k-68" style="edgeStyle=orthogonalEdgeStyle;rounded=0;orthogonalLoop=1;jettySize=auto;html=1;exitX=1;exitY=0.5;exitDx=0;exitDy=0;exitPerimeter=0;fontFamily=Times New Roman;fontSize=27;startArrow=none;startFill=0;endArrow=none;endFill=0;strokeColor=#000000;strokeWidth=3;" parent="1" source="pi-SV_cZ-HtD721v4x9k-67" edge="1">
          <mxGeometry relative="1" as="geometry">
            <mxPoint x="1130" y="760" as="targetPoint" />
          </mxGeometry>
        </mxCell>
        <mxCell id="pi-SV_cZ-HtD721v4x9k-67" value="" style="pointerEvents=1;verticalLabelPosition=bottom;shadow=0;dashed=0;align=center;html=1;verticalAlign=top;shape=mxgraph.electrical.miscellaneous.fuse_2;strokeWidth=3;direction=west;" parent="1" vertex="1">
          <mxGeometry x="1250" y="754" width="46" height="13" as="geometry" />
        </mxCell>
        <mxCell id="pi-SV_cZ-HtD721v4x9k-69" value="" style="endArrow=none;dashed=1;html=1;strokeWidth=3;strokeColor=#666666;" parent="1" edge="1">
          <mxGeometry width="50" height="50" relative="1" as="geometry">
            <mxPoint x="1272.4099999999999" y="360.22" as="sourcePoint" />
            <mxPoint x="1273" y="750" as="targetPoint" />
          </mxGeometry>
        </mxCell>
        <mxCell id="pi-SV_cZ-HtD721v4x9k-71" style="edgeStyle=orthogonalEdgeStyle;rounded=0;orthogonalLoop=1;jettySize=auto;html=1;exitX=1;exitY=0.5;exitDx=0;exitDy=0;exitPerimeter=0;entryX=0;entryY=0.5;entryDx=0;entryDy=0;entryPerimeter=0;fontFamily=Times New Roman;fontSize=27;startArrow=none;startFill=0;endArrow=none;endFill=0;strokeColor=#000000;strokeWidth=3;" parent="1" source="pi-SV_cZ-HtD721v4x9k-70" target="pi-SV_cZ-HtD721v4x9k-65" edge="1">
          <mxGeometry relative="1" as="geometry" />
        </mxCell>
        <mxCell id="pi-SV_cZ-HtD721v4x9k-72" style="edgeStyle=orthogonalEdgeStyle;rounded=0;orthogonalLoop=1;jettySize=auto;html=1;exitX=0;exitY=0.5;exitDx=0;exitDy=0;exitPerimeter=0;entryX=0;entryY=0.5;entryDx=0;entryDy=0;entryPerimeter=0;fontFamily=Times New Roman;fontSize=27;startArrow=none;startFill=0;endArrow=none;endFill=0;strokeColor=#000000;strokeWidth=3;" parent="1" source="pi-SV_cZ-HtD721v4x9k-70" target="pi-SV_cZ-HtD721v4x9k-67" edge="1">
          <mxGeometry relative="1" as="geometry" />
        </mxCell>
        <mxCell id="pi-SV_cZ-HtD721v4x9k-70" value="" style="pointerEvents=1;verticalLabelPosition=bottom;shadow=0;dashed=0;align=center;html=1;verticalAlign=top;shape=mxgraph.electrical.resistors.variable_resistor_1;fontFamily=Times New Roman;fontSize=27;strokeWidth=3;direction=north;flipH=1;" parent="1" vertex="1">
          <mxGeometry x="1430" y="501" width="60" height="100" as="geometry" />
        </mxCell>
        <mxCell id="pi-SV_cZ-HtD721v4x9k-73" style="edgeStyle=orthogonalEdgeStyle;rounded=0;orthogonalLoop=1;jettySize=auto;html=1;endArrow=oval;endFill=1;strokeWidth=3;entryX=0;entryY=0.645;entryDx=0;entryDy=0;entryPerimeter=0;" parent="1" edge="1">
          <mxGeometry relative="1" as="geometry">
            <mxPoint x="1361.3499999999997" y="350.42" as="targetPoint" />
            <mxPoint x="1320" y="350.45" as="sourcePoint" />
            <Array as="points">
              <mxPoint x="1320" y="350.45" />
            </Array>
          </mxGeometry>
        </mxCell>
        <mxCell id="pi-SV_cZ-HtD721v4x9k-75" style="edgeStyle=orthogonalEdgeStyle;rounded=0;orthogonalLoop=1;jettySize=auto;html=1;endArrow=oval;endFill=1;strokeWidth=3;entryX=0;entryY=0.645;entryDx=0;entryDy=0;entryPerimeter=0;" parent="1" edge="1">
          <mxGeometry relative="1" as="geometry">
            <mxPoint x="1361.3499999999995" y="760.0800000000002" as="targetPoint" />
            <mxPoint x="1320" y="760.1100000000001" as="sourcePoint" />
            <Array as="points">
              <mxPoint x="1320" y="760.11" />
            </Array>
          </mxGeometry>
        </mxCell>
        <mxCell id="pi-SV_cZ-HtD721v4x9k-76" value="&lt;font style=&quot;font-size: 24px&quot; face=&quot;Verdana&quot;&gt;+&lt;/font&gt;" style="text;html=1;strokeColor=none;fillColor=none;align=center;verticalAlign=middle;whiteSpace=wrap;rounded=0;dashed=1;" parent="1" vertex="1">
          <mxGeometry x="1340" y="360" width="40" height="20" as="geometry" />
        </mxCell>
        <mxCell id="pi-SV_cZ-HtD721v4x9k-77" value="&lt;font style=&quot;font-size: 24px&quot; face=&quot;Verdana&quot;&gt;-&lt;/font&gt;" style="text;html=1;strokeColor=none;fillColor=none;align=center;verticalAlign=middle;whiteSpace=wrap;rounded=0;dashed=1;" parent="1" vertex="1">
          <mxGeometry x="1340" y="729" width="40" height="20" as="geometry" />
        </mxCell>
        <mxCell id="pi-SV_cZ-HtD721v4x9k-79" value="" style="curved=1;endArrow=classic;html=1;rounded=0;fontFamily=Times New Roman;fontSize=27;strokeColor=#000000;strokeWidth=3;" parent="1" edge="1">
          <mxGeometry width="50" height="50" relative="1" as="geometry">
            <mxPoint x="1380" y="400" as="sourcePoint" />
            <mxPoint x="1377" y="720" as="targetPoint" />
            <Array as="points">
              <mxPoint x="1417" y="560" />
            </Array>
          </mxGeometry>
        </mxCell>
        <mxCell id="pi-SV_cZ-HtD721v4x9k-81" value="&lt;font style=&quot;font-size: 24px&quot;&gt;$$330\:\rm V$$&lt;/font&gt;" style="text;html=1;strokeColor=none;fillColor=none;align=center;verticalAlign=middle;whiteSpace=wrap;rounded=0;dashed=1;fontFamily=Times New Roman;" parent="1" vertex="1">
          <mxGeometry x="1310" y="523.5" width="80" height="55" as="geometry" />
        </mxCell>
        <mxCell id="pi-SV_cZ-HtD721v4x9k-84" value="$$150\:\rm A$$" style="text;html=1;strokeColor=none;fillColor=none;align=center;verticalAlign=middle;whiteSpace=wrap;rounded=0;fontFamily=Times New Roman;fontSize=27;fontColor=#000000;" parent="1" vertex="1">
          <mxGeometry x="384" y="295" width="60" height="30" as="geometry" />
        </mxCell>
        <mxCell id="pi-SV_cZ-HtD721v4x9k-85" value="" style="endArrow=blockThin;html=1;strokeWidth=2;endFill=1;strokeColor=#000000;endSize=10;" parent="1" edge="1">
          <mxGeometry width="50" height="50" relative="1" as="geometry">
            <mxPoint x="876" y="330.2299999999999" as="sourcePoint" />
            <mxPoint x="976" y="330" as="targetPoint" />
          </mxGeometry>
        </mxCell>
        <mxCell id="pi-SV_cZ-HtD721v4x9k-86" value="$$150\:\rm A$$" style="text;html=1;strokeColor=none;fillColor=none;align=center;verticalAlign=middle;whiteSpace=wrap;rounded=0;fontFamily=Times New Roman;fontSize=27;fontColor=#000000;" parent="1" vertex="1">
          <mxGeometry x="890" y="295" width="60" height="30" as="geometry" />
        </mxCell>
        <mxCell id="pi-SV_cZ-HtD721v4x9k-87" value="$$n$$" style="text;html=1;strokeColor=none;fillColor=none;align=center;verticalAlign=middle;whiteSpace=wrap;rounded=0;fontFamily=Times New Roman;fontSize=27;fontColor=#000000;" parent="1" vertex="1">
          <mxGeometry x="612.25" y="449" width="60" height="30" as="geometry" />
        </mxCell>
        <mxCell id="pi-SV_cZ-HtD721v4x9k-88" value="$$T_{mec}=328.65\:\rm Nm$$" style="text;html=1;strokeColor=none;fillColor=none;align=center;verticalAlign=middle;whiteSpace=wrap;rounded=0;fontFamily=Times New Roman;fontSize=27;fontColor=#000000;" parent="1" vertex="1">
          <mxGeometry x="632.25" y="620" width="60" height="30" as="geometry" />
        </mxCell>
      </root>
    </mxGraphModel>
  </diagram>
</mxfile>
